<svg xmlns="http://www.w3.org/2000/svg" xmlns:xlink="http://www.w3.org/1999/xlink" width="1000px" height="500px" viewBox="0 0 1000 500" preserveAspectRatio="none">

    <defs>
        <!-- Define gradients -->
        <linearGradient id="grad1" x1="0%" y1="0%" x2="100%" y2="0%">
            <stop offset="0%" style="stop-color:rgb(0,255,255);stop-opacity:1" />
            <stop offset="100%" style="stop-color:rgb(0,0,255);stop-opacity:1" />
        </linearGradient>
        <linearGradient id="grad2" x1="0%" y1="0%" x2="100%" y2="100%">
            <stop offset="0%" style="stop-color:rgb(255,0,255);stop-opacity:1" />
            <stop offset="100%" style="stop-color:rgb(0,255,0);stop-opacity:1" />
        </linearGradient>
    </defs>

    <style type="text/css"><![CDATA[
        line {
            stroke-width: 2px;
        }
        .grad1 {
            stroke: url(#grad1);
        }
        .grad2 {
            stroke: url(#grad2);
        }
        circle {
            fill: rgba(255,255,255,0.1);
            stroke: rgba(0,255,255,0.8);
            stroke-width: 1px;
        }
    ]]></style>

    <!-- Background Grid -->
    <g stroke="rgba(255,255,255,0.1)" stroke-width="1">
        <line x1="100" y1="0" x2="100" y2="500" />
        <line x1="200" y1="0" x2="200" y2="500" />
        <line x1="300" y1="0" x2="300" y2="500" />
        <line x1="400" y1="0" x2="400" y2="500" />
        <line x1="500" y1="0" x2="500" y2="500" />
        <line x1="600" y1="0" x2="600" y2="500" />
        <line x1="700" y1="0" x2="700" y2="500" />
        <line x1="800" y1="0" x2="800" y2="500" />
        <line x1="900" y1="0" x2="900" y2="500" />
        <line x1="0" y1="100" x2="1000" y2="100" />
        <line x1="0" y1="200" x2="1000" y2="200" />
        <line x1="0" y1="300" x2="1000" y2="300" />
        <line x1="0" y1="400" x2="1000" y2="400" />
    </g>

    <!-- Diagonal Lines with Gradients -->
    <line class="grad1" x1="1100" y1="500" x2="-1000" y2="250" />
    <line class="grad1" x1="1100" y1="500" x2="-1000" y2="-100" />
    <line class="grad1" x1="1100" y1="500" x2="-1000" y2="-500" />
    <line class="grad1" x1="1100" y1="500" x2="-250" y2="-500" />
    <line class="grad1" x1="1100" y1="500" x2="300" y2="-500" />
    <line class="grad1" x1="1100" y1="500" x2="750" y2="-500" />

    <line class="grad2" x1="1750" y1="0" x2="750" y2="500" />
    <line class="grad2" x1="1500" y1="0" x2="500" y2="500" />
    <line class="grad2" x1="1150" y1="0" x2="150" y2="500" />
    <line class="grad2" x1="700" y1="0" x2="-300" y2="500" />
    <line class="grad2" x1="150" y1="0" x2="-850" y2="500" />

    <!-- Circles for tech style effect -->
    <circle cx="500" cy="250" r="50" />
    <circle cx="250" cy="125" r="30" />
    <circle cx="750" cy="375" r="40" />
    <circle cx="900" cy="100" r="20" />
    <circle cx="100" cy="400" r="25" />

</svg>
